<svg class="illustration" width="1155" height="700" viewBox="0 0 1155 700" fill="none" xmlns="http://www.w3.org/2000/svg">
<path fill-rule="evenodd" clip-rule="evenodd" d="M579 205.732C498.219 205.732 432.732 271.219 432.732 352C432.732 411.944 468.795 463.524 520.518 486.116C534.116 492.055 540.324 507.892 534.385 521.49C528.446 535.087 512.609 541.295 499.011 535.356C428.42 504.523 379 434.063 379 352C379 241.543 468.543 152 579 152C628.241 152 673.387 169.829 708.23 199.353C719.551 208.945 720.952 225.898 711.36 237.218C701.768 248.539 684.815 249.94 673.494 240.348C647.992 218.739 615.05 205.732 579 205.732Z" fill="#3b3a3a"/>
<path fill-rule="evenodd" clip-rule="evenodd" d="M758.183 265.97C752.036 252.993 736.533 247.457 723.556 253.604C710.579 259.752 705.042 275.255 711.19 288.232C719.866 306.549 724.733 327.043 724.733 348.746C724.733 363.105 736.373 374.746 750.733 374.746C765.092 374.746 776.733 363.105 776.733 348.746C776.733 319.182 770.087 291.099 758.183 265.97ZM739.235 461.54C747.205 449.596 743.983 433.452 732.039 425.482C720.095 417.512 703.951 420.733 695.981 432.678C685.527 448.344 672.028 461.816 656.339 472.237C633.944 487.113 607.091 495.78 578.134 495.78C563.775 495.78 552.134 507.421 552.134 521.78C552.134 536.139 563.775 547.78 578.134 547.78C617.64 547.78 654.454 535.916 685.111 515.552C706.538 501.319 724.959 482.935 739.235 461.54Z" fill="#723562"/>
</svg>