<svg class="illustration" width="1155" height="700" viewBox="0 0 1155 700" fill="none" xmlns="http://www.w3.org/2000/svg">
<path fill-rule="evenodd" clip-rule="evenodd" d="M570.157 283.292C567.257 283.648 564.26 283.828 561.172 283.828C533.406 283.828 512.991 269.33 503.684 243.912V257.559H486.398V279.922H468.398H447.336H429.336V257.559H378H360V224.258C372.5 199.746 386.758 176.309 411.172 139.004H429.172H468.398H486.398V225.82H499.227C498.473 220.559 498.086 214.987 498.086 209.121C498.086 162.246 522.793 135 561.172 135C564.265 135 567.27 135.176 570.178 135.525C573.084 135.176 576.084 135 579.172 135C617.551 135 642.16 162.148 642.16 209.023C642.16 211.732 642.078 214.379 641.914 216.963C653.561 194.948 667.311 172.599 689.297 139.004H707.297H746.523H764.523V225.82H781.809V257.559H764.523V279.922H746.523H725.461H707.461V257.559H656.125H638.125V239.116C629.71 267.433 608.596 283.828 579.172 283.828C576.074 283.828 573.067 283.648 570.157 283.292ZM570.164 169.541C562.733 174.673 558.273 187.305 558.273 209.121C558.273 230.865 562.733 243.85 570.164 249.172C577.567 243.85 581.973 230.865 581.973 209.121C581.973 187.305 577.567 174.673 570.164 169.541ZM430.508 192.953C424.093 203.369 418.167 213.91 411.887 226.309V227.48H430.508V192.953ZM690.012 227.48H708.633V192.953C702.218 203.369 696.292 213.91 690.012 226.309V227.48Z" fill="

#e3e3e3"/>
<path d="M429.336 279.922H468.398V257.559H485.684V225.82H468.398V139.004H411.172C386.758 176.309 372.5 199.746 360 224.258V257.559H429.336V279.922ZM393.887 226.309C405.312 203.75 415.566 187.344 429.727 166.641H430.508V227.48H393.887V226.309Z" fill="black" fill-opacity="0.12"/>
<path d="M561.172 283.828C599.844 283.828 624.16 255.508 624.16 209.023C624.16 162.148 599.551 135 561.172 135C522.793 135 498.086 162.246 498.086 209.121C498.086 255.703 522.5 283.828 561.172 283.828ZM561.172 251.992C548.477 251.992 540.273 238.613 540.273 209.121C540.273 179.531 548.477 166.836 561.172 166.836C573.867 166.836 581.973 179.531 581.973 209.121C581.973 238.613 573.867 251.992 561.172 251.992Z" fill="black" fill-opacity="0.12"/>
<path d="M707.461 279.922H746.523V257.559H763.809V225.82H746.523V139.004H689.297C664.883 176.309 650.625 199.746 638.125 224.258V257.559H707.461V279.922ZM672.012 226.309C683.438 203.75 693.691 187.344 707.852 166.641H708.633V227.48H672.012V226.309Z" fill="black" fill-opacity="0.12"/>
<path fill-rule="evenodd" clip-rule="evenodd" d="M708.372 580.949L757.638 577.5C802.138 567 800.138 548.5 778.59 530L674.59 445C674.59 445 653.777 448.13 639.59 449.5C619.765 451.415 584.59 449.5 584.59 449.5L585.836 450.5H531.138L419.09 548.5C407.638 562.5 419.09 581.5 419.09 581.5H686.638H707.59C707.848 581.325 708.109 581.141 708.372 580.949Z" fill="#2F70EE"/>
<path d="M437.31 546.609L529.558 466.415C532.834 463.568 537.028 462 541.368 462H576.432C580.757 462 584.938 463.557 588.209 466.387L680.943 546.611C684.242 549.465 686.138 553.612 686.138 557.975C686.138 566.273 679.411 573 671.112 573H447.178C438.872 573 432.138 566.266 432.138 557.96C432.138 553.606 434.025 549.465 437.31 546.609Z" fill="black" fill-opacity="0.07"/>
<path d="M761.638 577L706.638 582C726.138 569.5 712.138 553.5 703.59 545L584.59 449.5C584.59 449.5 619.765 451.415 639.59 449.5C653.777 448.13 674.59 445 674.59 445L778.59 530C804.138 552.5 795.638 565.5 761.638 577Z" fill="black" fill-opacity="0.06"/>
<path d="M615.638 472.5L697.638 463.5M642.138 493L723.138 484.5M663.638 511.5L744.638 503M700.138 541L778.638 531.5M716.638 565.5L792.638 554" stroke="black" stroke-opacity="0.17" stroke-linecap="round"/>
<path d="M704 544L596.5 458L682.5 449.5L704 544Z" fill="black" fill-opacity="0.06"/>
<path d="M531.5 458L416 559C413.6 557.4 417 551.667 419 549L522.5 458H531.5Z" fill="black" fill-opacity="0.06"/>
<path d="M560.638 345.5L517.138 297.5L525.138 287H621.138H650.638L656.138 297.5L612.138 345.5H582.138H560.638Z" fill="#3072F3"/>
<path d="M608.5 287L572 345H582.5L627.5 298L621 287H608.5Z" fill="black" fill-opacity="0.02"/>
<path d="M612.638 345H582.138L627.138 297.5L620.638 287H650.638L656.138 297.5L612.638 345Z" fill="black" fill-opacity="0.23"/>
<path d="M627.638 297.5L621.138 287H650.638L656.138 297.5H627.638Z" fill="black" fill-opacity="0.06"/>
<circle cx="584.138" cy="309.5" r="4" fill="white"/>
<path d="M561 322C563.5 325.5 572 327.5 578.5 322" stroke="white" stroke-width="2" stroke-linecap="round"/>
<circle cx="554.138" cy="309.5" r="4" fill="white"/>
<rect x="541.138" y="342.5" width="81" height="12" rx="6" fill="#1E2D67"/>
<path d="M443.5 299.001C443.5 329.501 480.333 366.667 501 381.001C501 381.001 504 385.5 501 388.501C498 391.501 492.5 388.501 492.5 388.501C447 349 438.5 323 434 302.501C436.8 297.701 440.166 298.334 443.5 299.001Z" fill="#0988FC"/>
<path d="M487.362 372.834C454.862 348.834 440.362 315.334 440.362 296.834H443.362C443.196 309.501 452.062 341.834 488.862 369.834L487.362 372.834Z" fill="black" fill-opacity="0.11"/>
<path d="M491.833 374.334C491.5 376.334 489.433 380.434 483.833 380.834" stroke="black"/>
<path d="M481.333 364.334C481 366.334 478.933 370.434 473.333 370.834" stroke="black"/>
<path d="M469.333 352.334C469 354.334 466.933 358.434 461.333 358.834" stroke="black"/>
<path d="M458.333 337.334C458 339.334 455.933 343.434 450.333 343.834" stroke="black"/>
<path d="M449.333 323.334C449 325.334 447.333 328.834 441.833 327.834" stroke="black"/>
<path d="M444.333 310.158C444 312.158 442.333 315.658 436.833 314.658" stroke="black"/>
<path d="M426.611 269.021C423.351 270.186 420.511 272.291 418.448 275.07C416.385 277.849 415.193 281.178 415.021 284.635C414.85 288.092 415.708 291.522 417.486 294.491C419.265 297.461 421.884 299.836 425.012 301.317C428.14 302.798 431.637 303.318 435.061 302.812C438.485 302.305 441.682 300.794 444.247 298.471C446.813 296.148 448.632 293.116 449.474 289.759C450.316 286.401 450.144 282.87 448.979 279.611L443.085 281.717C443.833 283.811 443.944 286.079 443.403 288.235C442.862 290.392 441.693 292.339 440.046 293.832C438.398 295.324 436.344 296.294 434.145 296.62C431.946 296.945 429.7 296.611 427.69 295.66C425.681 294.708 423.999 293.183 422.856 291.275C421.714 289.368 421.163 287.165 421.273 284.944C421.383 282.724 422.149 280.586 423.474 278.801C424.799 277.015 426.624 275.663 428.717 274.915L426.611 269.021Z" fill="#00488A"/>
<path d="M481.138 458.5V350.5H647.638L691.638 355L687.638 450.5L647.638 458.5H481.138Z" fill="#00488A"/>
<path d="M650.138 458V351L691.638 355L687.638 450L650.138 458Z" fill="black" fill-opacity="0.08"/>
<path d="M681.5 446.5L690.5 361L687.5 450.5L662 455L681.5 446.5Z" fill="black" fill-opacity="0.11"/>
<path d="M666 454L656 351.5H650V458L666 454Z" fill="black" fill-opacity="0.06"/>
<path d="M637.5 457.5L648 350H650V457.5H637.5Z" fill="black" fill-opacity="0.06"/>
<path d="M481 375.5V458H571L499.34 452.133C491.4 451.483 485.148 445.091 484.674 437.138L481 375.5Z" fill="black" fill-opacity="0.09"/>
<path d="M731.134 288.001C731.134 318.501 694.301 355.667 673.634 370.001C673.634 370.001 670.634 374.5 673.634 377.501C676.634 380.501 682.134 377.501 682.134 377.501C727.634 338 736.134 312 740.634 291.501C737.834 286.701 734.467 287.334 731.134 288.001Z" fill="#0988FC"/>
<path d="M734.163 289.334C731.763 328.934 692.163 362.501 672.663 374.334C671.463 374.334 672.163 371.001 672.663 369.334C721.463 334.934 731.996 300.334 731.163 287.334L734.163 289.334Z" fill="black" fill-opacity="0.09"/>
<path d="M682.801 363.334C683.134 365.334 685.201 369.434 690.801 369.834" stroke="black"/>
<path d="M693.301 353.334C693.634 355.334 695.701 359.434 701.301 359.834" stroke="black"/>
<path d="M705.301 341.334C705.634 343.334 707.701 347.434 713.301 347.834" stroke="black"/>
<path d="M716.301 326.334C716.634 328.334 718.701 332.434 724.301 332.834" stroke="black"/>
<path d="M725.301 312.334C725.634 314.334 727.301 317.834 732.801 316.834" stroke="black"/>
<path d="M730.301 299.158C730.634 301.158 732.301 304.658 737.801 303.658" stroke="black"/>
<path d="M758.559 280.539C756.957 284.895 753.691 288.436 749.478 290.384C745.265 292.332 740.451 292.527 736.095 290.925C731.739 289.324 728.197 286.057 726.249 281.844C724.302 277.632 724.107 272.818 725.709 268.461L731.584 270.621C730.555 273.419 730.68 276.511 731.931 279.217C733.182 281.923 735.457 284.021 738.255 285.05C741.053 286.079 744.145 285.954 746.851 284.703C749.557 283.452 751.655 281.177 752.684 278.379L758.559 280.539Z" fill="#00488A"/>
<rect x="510" y="370" width="104" height="63" rx="8" fill="
#723562"/>
<path d="M607.641 433H584.5C584.5 433 592.883 418.745 595 407.5C597.662 393.361 592 370 592 370H605.783C610.838 370 614.901 374.161 614.781 379.214L613.639 427.143C613.562 430.4 610.899 433 607.641 433Z" fill="black" fill-opacity="0.06"/>
<path d="M510.436 425.929L510 378C513.2 420.4 529.5 432.5 536.5 432.5L517.57 432.864C513.677 432.939 510.471 429.823 510.436 425.929Z" fill="black" fill-opacity="0.05"/>
<circle cx="547.371" cy="425.371" r="2.37097" fill="white"/>
<circle cx="555.5" cy="425.371" r="2.37097" fill="#EDD06C"/>
<circle cx="563.629" cy="425.371" r="2.37097" fill="#F995C5"/>
<circle cx="452" cy="549" r="4" fill="black" fill-opacity="0.15"/>
<circle cx="469" cy="534" r="4" fill="black" fill-opacity="0.15"/>
<circle cx="486" cy="519" r="4" fill="black" fill-opacity="0.15"/>
<circle cx="503" cy="504" r="4" fill="black" fill-opacity="0.15"/>
<circle cx="520" cy="489" r="4" fill="black" fill-opacity="0.15"/>
<circle r="4" transform="matrix(-1 0 0 1 662 549)" fill="black" fill-opacity="0.15"/>
<circle r="4" transform="matrix(-1 0 0 1 645 534)" fill="black" fill-opacity="0.15"/>
<circle r="4" transform="matrix(-1 0 0 1 628 519)" fill="black" fill-opacity="0.15"/>
<circle r="4" transform="matrix(-1 0 0 1 611 504)" fill="black" fill-opacity="0.15"/>
<circle r="4" transform="matrix(-1 0 0 1 594 489)" fill="black" fill-opacity="0.15"/>
</svg>