<svg width="24" height="24" viewBox="0 0 24 24" fill="none" xmlns="http://www.w3.org/2000/svg"><rect width="24" height="24" fill="none" rx="0" ry="0"></rect><path fill-rule="evenodd" clip-rule="evenodd" d="M4 4C2.89543 4 2 4.89543 2 6V18C2 19.1046 2.89543 20 4 20H20C21.1046 20 22 19.1046 22 18V6C22 4.89543 21.1046 4 20 4H4ZM4.2 5.2C3.64772 5.2 3.2 5.64771 3.2 6.2V17.8C3.2 17.8356 3.20186 17.8707 3.20547 17.9053L8.14898 10.8452L9.13196 11.5335L4.05156 18.7891C4.1 18.7963 4.14956 18.8 4.2 18.8H19.8C19.8389 18.8 19.8773 18.7978 19.9151 18.7934L15.1583 12L15.783 10.8L20.7889 17.9492C20.7962 17.9006 20.8 17.8507 20.8 17.8V6.2C20.8 5.64772 20.3523 5.2 19.8 5.2H4.2Z" fill="#723562"></path><path fill-rule="evenodd" clip-rule="evenodd" d="M4 4C2.89543 4 2 4.89543 2 6V7.12602L8.79846 12.7932C10.6529 14.3391 13.3471 14.3391 15.2015 12.7932L22 7.12602V6C22 4.89543 21.1046 4 20 4H4ZM4.2 5.25041C3.64772 5.25041 3.2 5.69812 3.2 6.25041V6.51533L9.40781 11.7976C10.9021 13.069 13.0979 13.069 14.5922 11.7976L20.8 6.51533V6.25041C20.8 5.69812 20.3523 5.25041 19.8 5.25041H4.2Z" fill="#3b3a3a"></path><path fill-rule="evenodd" clip-rule="evenodd" d="M15.525 12.5236L16.45 11.7525L20.789 17.9493C20.7225 18.3934 20.364 18.742 19.9152 18.7935L15.525 12.5236ZM8.93717 11.3971L9.13199 11.5335L9.11911 11.5519L8.93717 11.3971ZM7.52708 11.7334L8.45209 12.5045L4.05159 18.7891C3.60384 18.7224 3.25297 18.359 3.20551 17.9053L7.52708 11.7334Z" fill="black" fill-opacity="0.3"></path></svg>